<svg version="1.1" id="Layer_1" xmlns="http://www.w3.org/2000/svg" xmlns:xlink="http://www.w3.org/1999/xlink" x="0px" y="0px"
	 width="100%" viewBox="0 0 496 96" enable-background="new 0 0 496 96" xml:space="preserve">
<path fill="#000000" opacity="1.000000" stroke="none" 
	d="
M265.958313,78.907227 
	C264.357117,80.857132 263.072906,82.620018 261.559509,84.157326 
	C259.660706,86.086159 257.482513,87.903000 254.527466,86.820503 
	C251.575012,85.738945 250.304123,83.097649 249.820023,80.218407 
	C249.442657,77.973946 249.534424,75.650612 249.391678,72.851860 
	C244.965515,74.898941 242.383896,79.590553 237.647614,79.605927 
	C231.772400,79.625015 231.466751,74.576149 230.290405,69.998047 
	C226.859406,72.365562 223.524506,74.937111 219.570114,71.321815 
	C214.356796,66.555527 217.287079,60.976669 218.051819,54.658512 
	C215.971359,57.741592 214.370026,60.037357 212.851242,62.386520 
	C211.239670,64.879204 210.068817,67.750862 206.224686,67.514999 
	C204.541275,67.411713 203.818771,69.112633 203.005280,70.352409 
	C200.986618,73.428902 198.827286,76.405830 196.015366,78.799019 
	C192.271408,81.985458 188.357269,81.145470 186.217896,76.726501 
	C184.236313,72.633461 184.339172,68.372925 186.130844,62.621422 
	C182.668610,67.101654 180.476913,70.652588 177.475571,73.569229 
	C175.237442,75.744179 172.821609,77.039124 169.870468,76.004753 
	C166.976959,74.990601 166.027161,72.037926 166.052338,69.468109 
	C166.136383,60.890800 168.547592,52.857445 174.841171,46.820538 
	C180.806320,41.098660 184.105576,42.021397 188.853714,49.698074 
	C189.269577,49.495743 189.744049,49.351074 190.115326,49.070065 
	C192.258972,47.447632 194.525116,46.389065 196.874207,48.491352 
	C199.200363,50.573132 198.403030,53.089558 197.206223,55.367104 
	C194.992218,59.580421 194.399017,64.211334 193.505615,68.764938 
	C193.257370,70.030258 193.030518,71.395348 194.175812,73.294212 
	C198.377426,69.300888 202.310562,65.222740 203.463303,59.647156 
	C204.691025,53.708839 206.991577,48.229294 209.033493,42.616234 
	C210.201965,39.404221 212.580078,38.530758 215.365112,40.087749 
	C218.460403,41.818207 216.570114,43.788189 215.244308,45.846485 
	C213.215912,48.995548 211.165237,52.246895 211.352798,57.266926 
	C214.885223,52.777924 217.757675,48.960548 220.815643,45.298058 
	C222.991104,42.692524 225.298950,38.746258 229.255722,41.819717 
	C232.966293,44.701958 231.452179,48.464333 228.652435,51.397026 
	C224.729080,55.506725 224.017685,60.727818 222.472061,67.169571 
	C227.961197,63.075111 232.484970,59.866985 235.716263,55.147923 
	C236.656509,53.774757 237.506622,52.318954 238.592560,51.070156 
	C242.890213,46.127884 245.357758,46.145565 253.086258,51.273258 
	C256.429016,42.907524 259.341064,34.449471 263.285889,26.432123 
	C265.158936,22.625427 267.421173,19.137129 271.162415,16.980732 
	C274.415405,15.105739 277.932281,14.830731 281.040100,17.195080 
	C284.013275,19.456985 283.737335,22.782909 282.782959,25.906631 
	C280.754272,32.546799 276.727936,38.112492 272.707672,43.636799 
	C269.772095,47.670620 266.558838,51.502121 263.615051,55.530254 
	C258.291229,62.815067 258.335602,71.194695 258.353302,80.385773 
	C261.511505,78.667259 263.109283,76.540817 264.479950,74.384041 
	C268.838226,67.526169 275.069702,61.983376 278.387970,54.394352 
	C279.197601,52.542667 281.128845,52.724037 282.779480,52.724396 
	C291.580444,52.726299 300.465210,51.774281 308.517365,55.107311 
	C310.721985,54.291161 310.587646,52.522400 311.250885,51.248562 
	C312.352264,49.133224 312.628387,45.812363 315.719971,46.052391 
	C318.471375,46.266010 319.419830,48.988930 319.768097,52.032467 
	C322.353119,48.305374 324.588257,44.882030 327.037933,41.619804 
	C328.731537,39.364426 331.020447,37.679665 333.909210,39.336018 
	C336.730713,40.953827 337.418610,43.639488 336.254883,46.698566 
	C335.430664,48.865257 334.535767,51.005047 333.239166,54.236755 
	C336.143860,50.656994 338.145264,47.755020 340.599915,45.307636 
	C342.453674,43.459347 344.958527,41.576256 347.712128,43.453224 
	C350.148010,45.113602 350.346008,47.813343 349.710846,50.653221 
	C348.721069,55.078491 346.837280,59.154690 345.165771,63.322865 
	C344.255432,65.592949 342.943970,67.812912 343.727539,71.469864 
	C349.166931,66.552612 353.848145,61.864243 356.711792,55.724052 
	C358.486877,51.917999 360.386597,48.274418 363.129852,45.078064 
	C365.058105,42.831356 367.458923,41.387066 370.320282,40.879097 
	C373.490234,40.316349 376.373901,41.164646 378.318268,43.829411 
	C380.107483,46.281498 379.409973,48.907852 378.110535,51.373581 
	C375.851929,55.659431 372.174866,58.560093 368.151947,60.967606 
	C362.986450,64.058884 361.249634,68.683655 363.420685,75.600365 
	C368.413513,74.322212 371.308929,70.415344 374.336945,66.870247 
	C377.362366,63.328163 380.014404,59.469063 382.889435,55.795353 
	C383.695282,54.765663 384.746613,53.405037 386.182129,54.319397 
	C387.970581,55.458549 386.925110,57.030014 386.022766,58.192646 
	C381.325806,64.244362 376.714966,70.375725 371.739838,76.193451 
	C369.175568,79.191994 366.101196,82.342018 361.475739,80.855339 
	C356.627625,79.297089 353.707275,75.889786 353.390625,69.902580 
	C351.477020,71.975807 350.038239,73.716614 348.407776,75.254211 
	C346.442413,77.107666 344.365967,78.777077 341.304047,77.461693 
	C338.365265,76.199211 337.135986,73.905785 336.660583,70.901741 
	C335.628754,64.381950 337.186890,58.397964 340.206573,52.595631 
	C337.217896,56.321587 334.076874,59.813599 331.857422,64.031189 
	C330.924347,65.804382 330.053986,68.547302 327.249512,67.614006 
	C324.566742,66.721237 324.665466,64.093681 324.692902,61.685215 
	C324.755249,56.216782 327.428589,51.538918 329.151001,46.536575 
	C323.697815,52.905159 320.682556,60.635990 316.839172,67.894798 
	C315.981293,69.515015 315.875397,72.302780 313.081726,71.747910 
	C310.385864,71.212471 308.941254,69.186676 308.545837,66.419395 
	C308.172485,63.806332 309.240112,61.125957 308.041870,58.085518 
	C301.234497,59.126198 294.399719,60.951393 287.465637,60.473637 
	C279.829163,59.947495 275.758545,64.345222 272.178589,70.011589 
	C270.311829,72.966316 268.183655,75.755882 265.958313,78.907227 
M240.274307,66.762810 
	C239.695450,69.103798 238.430893,71.416061 240.144089,74.377502 
	C245.411148,70.398582 250.915436,67.067833 251.510269,59.621338 
	C251.720337,56.991486 251.077408,54.791676 248.728195,53.773861 
	C246.070847,52.622532 245.314117,55.233067 244.479004,56.872696 
	C242.972260,59.830929 241.778412,62.948536 240.274307,66.762810 
M277.272614,27.674250 
	C277.566681,25.681589 278.716980,23.584818 276.253387,21.263779 
	C269.967682,28.863888 267.212250,37.608910 264.994263,46.632442 
	C269.708313,40.970917 274.042389,35.125809 277.272614,27.674250 
M184.247330,50.711205 
	C183.653229,48.899235 182.443970,47.843433 181.166946,49.798798 
	C177.486740,55.433895 174.994308,61.549557 174.803619,68.446793 
	C177.008209,66.481163 178.862701,64.381546 180.432663,62.087234 
	C182.630737,58.874950 185.895050,55.994869 184.247330,50.711205 
M371.642517,52.003063 
	C373.087402,50.194923 374.359650,48.352596 372.901306,45.528675 
	C369.276398,48.213032 368.363739,51.952297 367.481354,55.753773 
	C368.717987,54.673569 369.954620,53.593365 371.642517,52.003063 
z"/>
<path fill="#000000" opacity="1.000000" stroke="none" 
	d="
M147.766449,27.649174 
	C144.994507,33.841568 141.881073,39.513924 140.727310,46.201332 
	C144.486740,45.989456 147.757492,45.799000 151.029007,45.622490 
	C154.163010,45.453396 154.979568,42.971756 155.974289,40.676899 
	C159.218674,33.191853 162.462372,25.706476 165.687805,18.213249 
	C166.823746,15.574258 167.738617,12.445586 171.644989,14.240937 
	C175.188553,15.869545 176.596008,18.725958 174.936768,22.448107 
	C172.498306,27.918238 169.853088,33.296215 167.295105,38.713051 
	C166.531876,40.329292 165.388367,41.827946 165.523651,43.521461 
	C166.929626,45.531128 169.330246,44.203190 170.686523,45.774666 
	C170.687485,47.852886 168.886230,48.063389 167.580460,48.095791 
	C163.369064,48.200291 161.437164,50.666523 160.101089,54.257507 
	C156.329819,64.393532 152.411057,74.474594 148.572205,84.585587 
	C147.544174,87.293320 146.611496,90.490868 142.807495,89.123962 
	C139.200302,87.827789 139.477463,84.779961 140.328979,81.575134 
	C142.389389,73.820572 145.776855,66.563103 148.476395,59.050205 
	C149.309692,56.731075 150.113052,54.401180 151.210358,51.278805 
	C146.818130,51.869141 143.103668,52.278271 139.424194,52.895893 
	C137.127243,53.281445 136.361664,55.198666 135.778488,57.195866 
	C133.774063,64.060272 131.769882,70.925079 129.697968,77.769249 
	C128.977600,80.148842 129.048355,83.958916 125.094261,82.646423 
	C121.820595,81.559799 120.294373,78.629539 121.397690,74.966370 
	C123.076706,69.391808 124.860878,63.848282 126.481468,58.257103 
	C127.056313,56.273869 128.086868,54.268021 126.062431,52.236076 
	C124.738297,50.907032 125.302124,49.310120 127.143318,48.763706 
	C130.135162,47.875813 131.015137,45.447651 132.056213,42.937099 
	C135.754257,34.019341 139.557480,25.145100 143.341034,16.262968 
	C144.621277,13.257524 146.254379,10.778753 150.093216,12.801922 
	C153.738922,14.723310 152.438919,17.241005 151.024780,19.952200 
	C149.798828,22.302650 148.947556,24.848526 147.766449,27.649174 
z"/>
</svg>